<?xml version="1.0" encoding="utf-8"?>
<svg xmlns="http://www.w3.org/2000/svg" xmlns:xlink="http://www.w3.org/1999/xlink" style="margin: auto; background: none; display: block; shape-rendering: auto;" width="72px" height="72px" viewBox="0 0 100 100" preserveAspectRatio="xMidYMid">
<g transform="translate(50 50)">
<g>
<animateTransform attributeName="transform" type="rotate" values="0;27.692307692307693" keyTimes="0;1" dur="0.1272264631043257s" repeatCount="indefinite"></animateTransform><path d="M26.622359023948274 -4.5 L32.62235902394828 -4.5 L32.62235902394828 4.5 L26.622359023948274 4.5 A27 27 0 0 1 25.664182489055065 8.38747501745784 L25.664182489055065 8.38747501745784 L30.976918642974326 11.17581404972045 L26.794410094580407 19.144918280599338 L21.481673940661146 16.35657924833673 A27 27 0 0 1 18.82665103284653 19.353480588447617 L18.82665103284653 19.353480588447617 L22.235039513233467 24.291383783809557 L14.828184720190556 29.403966504389956 L11.419796239803622 24.46606330902802 A27 27 0 0 1 7.676160710753314 25.885836991348903 L7.676160710753314 25.885836991348903 L8.399380792285253 31.842090235937228 L-0.5349990745972306 32.92692035823514 L-1.25821915612917 26.97066711364681 A27 27 0 0 1 -5.232845522408636 26.488060097685672 L-5.232845522408636 26.488060097685672 L-7.360474844663848 32.09815755379816 L-15.775621028832585 28.906713570415338 L-13.647991706577372 23.29661611430285 A27 27 0 0 1 -16.9430699090116 21.022187851371363 L-16.9430699090116 21.022187851371363 L-21.434134398038207 25.000923800816135 L-27.402238322205363 18.264327067276227 L-22.911173833178758 14.285591117831453 A27 27 0 0 1 -24.771841165587176 10.74038571313528 L-24.771841165587176 10.74038571313528 L-30.59749207014349 12.176279698860629 L-32.75133304873151 3.437803342026164 L-26.9256821441752 2.001909356300815 A27 27 0 0 1 -26.9256821441752 -2.001909356300797 L-26.9256821441752 -2.001909356300797 L-32.75133304873151 -3.4378033420261414 L-30.5974920701435 -12.17627969886061 L-24.771841165587187 -10.740385713135264 A27 27 0 0 1 -22.91117383317877 -14.285591117831437 L-22.91117383317877 -14.285591117831437 L-27.402238322205378 -18.264327067276206 L-21.434134398038225 -25.000923800816118 L-16.943069909011616 -21.02218785137135 A27 27 0 0 1 -13.647991706577391 -23.296616114302843 L-13.647991706577391 -23.296616114302843 L-15.775621028832607 -28.90671357041533 L-7.360474844663852 -32.09815755379816 L-5.2328455224086365 -26.488060097685672 A27 27 0 0 1 -1.2582191561292067 -26.970667113646808 L-1.2582191561292067 -26.970667113646808 L-0.5349990745972728 -32.92692035823514 L8.399380792285235 -31.84209023593723 L7.676160710753301 -25.885836991348906 A27 27 0 0 1 11.419796239803604 -24.466063309028026 L11.419796239803604 -24.466063309028026 L14.828184720190539 -29.403966504389967 L22.235039513233463 -24.291383783809554 L18.82665103284653 -19.353480588447614 A27 27 0 0 1 21.48167394066113 -16.356579248336754 L21.48167394066113 -16.356579248336754 L26.794410094580385 -19.14491828059937 L30.97691864297432 -11.175814049720465 L25.66418248905506 -8.38747501745785 A27 27 0 0 1 26.62235902394827 -4.500000000000018 M0 -25A25 25 0 1 0 0 25 A25 25 0 1 0 0 -25" fill="#ff577f"></path></g></g>
<!-- [ldio] generated by https://loading.io/ --></svg>